<svg width="520" height="420" viewBox="0 0 520 420" fill="none" xmlns="http://www.w3.org/2000/svg">
  <rect x="36" y="42" width="448" height="320" rx="38" fill="#ffffff"/>
  <rect x="70" y="78" width="190" height="34" rx="17" fill="#E5F7EF"/>
  <rect x="292" y="78" width="88" height="34" rx="17" fill="#FFF0E5"/>
  <rect x="70" y="140" width="160" height="160" rx="18" fill="#F2F5F1"/>
  <rect x="258" y="140" width="192" height="160" rx="18" fill="#E5F7EF"/>
  <circle cx="148" cy="204" r="42" fill="#FF9B54"/>
  <path d="M125 220c32-52 71-67 95-56-14 26-44 57-95 56z" fill="#18A875"/>
  <circle cx="326" cy="212" r="38" fill="#18A875"/>
  <rect x="352" y="182" width="56" height="72" rx="14" fill="#FF9B54"/>
  <rect x="84" y="318" width="88" height="18" rx="9" fill="#18A875"/>
  <rect x="188" y="318" width="72" height="18" rx="9" fill="#E2E6DF"/>
  <rect x="292" y="318" width="128" height="18" rx="9" fill="#E2E6DF"/>
  <circle cx="432" cy="95" r="54" fill="#FFD8B8" opacity="0.75"/>
  <circle cx="86" cy="338" r="38" fill="#C8EDD9" opacity="0.85"/>
</svg>
